<?xml version="1.0" encoding="utf-8"?>
<!-- Generator: Adobe Illustrator 27.5.0, SVG Export Plug-In . SVG Version: 6.00 Build 0)  -->
<svg version="1.1" xmlns="http://www.w3.org/2000/svg" xmlns:xlink="http://www.w3.org/1999/xlink" x="0px" y="0px"
	 viewBox="0 0 500 500" style="enable-background:new 0 0 500 500;" xml:space="preserve">
<g id="Background_Complete">
	<g>
		<g>
			<path style="fill:#EBEBEB;" d="M35.338,423.895v25.069h5.79c0,0-0.555-4.991,0-7.949c0.555-2.958,6.84-10.578,6.655-17.12H35.338
				z"/>
			<path style="fill:#E0E0E0;" d="M81.655,423.895v25.069h5.79c0,0-0.555-4.991,0-7.949c0.554-2.958,6.84-10.578,6.655-17.12H81.655
				z"/>
			<path style="fill:#EBEBEB;" d="M126.987,423.895v25.069h-5.79c0,0,0.554-4.991,0-7.949c-0.555-2.958-6.84-10.578-6.655-17.12
				H126.987z"/>
			<path style="fill:#E0E0E0;" d="M167.08,423.895v25.069h-5.79c0,0,0.555-4.991,0-7.949c-0.555-2.958-6.84-10.578-6.655-17.12
				H167.08z"/>
			<rect x="31.4" y="300.134" style="fill:#F5F5F5;" width="138.716" height="124.571"/>
			<polygon style="fill:#E0E0E0;" points="132.745,300.134 133.778,424.705 170.116,424.705 170.116,300.13 			"/>
			<rect x="37.642" y="309.298" style="fill:#EBEBEB;" width="89.06" height="31.697"/>
			<rect x="37.642" y="347.315" style="fill:#EBEBEB;" width="89.06" height="31.697"/>
			<rect x="37.642" y="385.331" style="fill:#EBEBEB;" width="89.06" height="31.697"/>
			<g>
				<g>
					<g>
						<polygon style="fill:#E0E0E0;" points="71.782,264.338 67.94,299.987 117.159,299.987 121.241,264.338 						"/>
					</g>
				</g>
				<g>
					<g>
						<polygon style="fill:#FFFFFF;" points="73.805,266.899 70.068,298.093 114.487,298.093 118.081,266.899 						"/>
					</g>
				</g>
				<g>
					<g>
						<polygon style="fill:#EBEBEB;" points="81.28,272.146 78.981,292.846 107.012,292.846 108.45,272.146 						"/>
					</g>
				</g>
			</g>
			<polyline style="fill:#EBEBEB;" points="119.483,279.691 129.649,300.13 117.159,299.987 119.483,279.691 			"/>
		</g>
		<path style="fill:#E0E0E0;" d="M85.43,326.803c0,1.799-1.458,3.258-3.258,3.258c-1.799,0-3.258-1.458-3.258-3.258
			s1.458-3.258,3.258-3.258C83.971,323.546,85.43,325.004,85.43,326.803z"/>
		<path style="fill:#E0E0E0;" d="M85.43,365.197c0,1.799-1.458,3.258-3.258,3.258c-1.799,0-3.258-1.458-3.258-3.258
			c0-1.799,1.458-3.258,3.258-3.258C83.971,361.939,85.43,363.398,85.43,365.197z"/>
		<path style="fill:#E0E0E0;" d="M85.43,403.59c0,1.799-1.458,3.258-3.258,3.258c-1.799,0-3.258-1.458-3.258-3.258
			c0-1.799,1.458-3.258,3.258-3.258C83.971,400.332,85.43,401.791,85.43,403.59z"/>
	</g>
	<g>
		<g>
			<g>
				<polygon style="fill:#E0E0E0;" points="126.563,97.632 47.908,96.867 50.104,199.37 128.749,199.659 				"/>
			</g>
		</g>
		<g>
			<g>
				<polygon style="fill:#FAFAFA;" points="121.489,102.204 52.637,100.415 54.628,193.38 123.46,194.227 				"/>
			</g>
		</g>
		<g>
			<g>
				<polygon style="fill:#EBEBEB;" points="109.736,116.091 64.054,115.331 65.446,180.31 111.091,179.332 				"/>
			</g>
		</g>
		<g>
			<g>
				<polygon style="fill:#F5F5F5;" points="65.446,180.31 110.376,145.95 64.054,115.331 				"/>
			</g>
		</g>
	</g>
	<g>
		<g>
			<g>
				<polygon style="fill:#E0E0E0;" points="465.006,44.204 396.004,43.533 397.931,133.456 466.923,133.71 				"/>
			</g>
		</g>
		<g>
			<g>
				<polygon style="fill:#FAFAFA;" points="460.554,48.215 400.153,46.646 401.9,128.201 462.284,128.945 				"/>
			</g>
		</g>
		<g>
			<g>
				<polygon style="fill:#EBEBEB;" points="450.244,60.398 410.169,59.732 411.39,116.735 451.432,115.877 				"/>
			</g>
		</g>
		<g>
			<g>
				<polygon style="fill:#F5F5F5;" points="411.39,116.735 450.805,86.592 410.169,59.732 				"/>
			</g>
		</g>
	</g>
	<g>
		<g>
			<path style="fill:#EBEBEB;" d="M387.711,382.3c-0.294,0.882,10,40.002,10,40.002l7.059-1.471l-9.706-38.531H387.711z"/>
		</g>
		<g>
			<polygon style="fill:#F5F5F5;" points="442.419,376.712 428.301,422.302 436.536,422.302 450.066,379.947 			"/>
		</g>
		<g>
			<polygon style="fill:#EBEBEB;" points="455.361,369.653 439.183,422.302 447.419,422.302 463.008,372.888 			"/>
		</g>
		<g>
			<polygon style="fill:#E0E0E0;" points="392.711,419.066 400.947,447.597 442.419,447.597 450.066,419.066 			"/>
		</g>
		<g>
			<g>
				<path style="fill:#E0E0E0;" d="M414.104,419.066c-0.008,0.002-0.039-0.097-0.091-0.293c-0.056-0.223-0.128-0.51-0.219-0.872
					c-0.19-0.802-0.456-1.931-0.797-3.37c-0.679-2.968-1.649-7.211-2.849-12.46c-2.371-10.586-5.649-25.216-9.308-41.548
					l0.254,0.203c-1.161,0-2.407,0-3.661,0c-1.233,0-2.459,0-3.601,0l0.253-0.318c3.682,16.347,6.979,30.99,9.365,41.585
					c1.161,5.263,2.099,9.519,2.756,12.495c0.308,1.448,0.55,2.583,0.722,3.39c0.073,0.366,0.13,0.657,0.175,0.883
					c0.037,0.2,0.051,0.303,0.043,0.304c-0.009,0.002-0.04-0.097-0.093-0.293c-0.057-0.223-0.131-0.51-0.224-0.872
					c-0.194-0.802-0.466-1.93-0.814-3.369c-0.694-2.967-1.686-7.211-2.914-12.459c-2.426-10.585-5.779-25.215-9.523-41.549
					l-0.073-0.318l0.326,0c1.142,0,2.367,0,3.601,0c1.254,0,2.5,0,3.661,0l0.209,0l0.045,0.204
					c3.597,16.346,6.819,30.989,9.15,41.583c1.134,5.263,2.05,9.519,2.691,12.495c0.301,1.448,0.537,2.583,0.704,3.39
					c0.071,0.366,0.127,0.657,0.171,0.883C414.098,418.962,414.113,419.065,414.104,419.066z"/>
			</g>
		</g>
	</g>
</g>
<g id="Background_Simple" style="display:none;">
	<path style="display:inline;fill:#E0E0E0;" d="M429.42,94.234c26.696,53.193,18.252,120.336-15.114,169.619
		s-88.875,81.192-147.246,92.811c-41.667,8.294-86.492,6.605-124.564-12.249c-38.071-18.854-68.008-56.787-70.291-99.21
		c-0.862-16.024,2.536-33.039,13.229-45.004c17.074-19.105,46.223-19.777,71.833-18.989c25.611,0.788,54.74,0.191,71.897-18.839
		c13.184-14.622,15.125-35.832,22.072-54.253c11.813-31.322,40.311-55.78,73.063-62.703c4.549-0.962,9.16-1.581,13.79-1.87
		c36.023-2.249,70.19,16.288,89.087,47.038L429.42,94.234z"/>
</g>
<g id="Floor">
	<g>
		<g>
			<path style="fill:#263238;" d="M454.629,448.79c0,0.144-94.943,0.26-212.035,0.26c-117.132,0-212.055-0.116-212.055-0.26
				s94.923-0.26,212.055-0.26C359.685,448.529,454.629,448.646,454.629,448.79z"/>
		</g>
	</g>
</g>
<g id="Plants">
	<g>
		<g>
			<g>
				<path style="fill:#263238;" d="M427.33,175.848c0,0-0.23-0.108-0.709-0.217c-0.476-0.111-1.227-0.177-2.168,0.032
					c-0.94,0.206-2.047,0.725-3.153,1.619c-1.116,0.889-2.158,2.188-3.2,3.729c-2.046,3.136-3.661,7.478-5.541,12.539
					c-1.849,5.072-3.922,10.933-5.64,17.63l-0.006,0.023l-0.008,0.014c-0.303,0.543-0.681,1.032-1.166,1.443
					c-0.483,0.388-1.14,0.71-1.818,0.58c-0.674-0.107-1.213-0.546-1.675-0.966c-0.466-0.433-0.905-0.894-1.346-1.358
					c-0.878-0.928-1.764-1.876-2.772-2.704c-0.997-0.791-2.2-1.562-3.504-1.432c-1.268,0.162-2.484,1.022-3.213,2.141
					c-0.731,1.151-1.043,2.556-1.106,3.972c-0.17,2.863,0.656,5.746,1.158,8.742c0.557,2.99,1.128,6.053,1.711,9.187
					c0.292,1.567,0.587,3.151,0.885,4.753c0.149,0.801,0.299,1.606,0.45,2.415c0.181,0.773,0.278,1.772-0.286,2.561
					c-0.275,0.419-0.882,0.582-1.335,0.454c-0.46-0.109-0.843-0.37-1.183-0.616c-0.673-0.504-1.35-1.01-2.03-1.52
					c-1.356-1.01-2.755-1.989-4.237-2.853c-1.48-0.854-3.054-1.627-4.739-1.973c-0.838-0.169-1.71-0.199-2.523,0.017
					c-0.814,0.208-1.542,0.696-2.055,1.38c-1.038,1.373-1.319,3.223-1.347,4.997c-0.029,1.797,0.197,3.614,0.524,5.42
					c0.672,3.616,1.761,7.21,3.048,10.778c0.295,0.896,0.744,1.751,0.874,2.781c0.062,0.498-0.003,1.1-0.37,1.543
					c-0.086,0.109-0.185,0.208-0.289,0.291c-0.128,0.087-0.156,0.16-0.389,0.229c-0.399,0.085-0.641-0.083-0.871-0.192
					c-0.889-0.519-1.579-1.194-2.313-1.84c-0.712-0.66-1.426-1.322-2.143-1.987c-1.432-1.318-2.896-2.627-4.548-3.662
					c-0.824-0.511-1.699-0.958-2.623-1.194c-0.918-0.256-1.905-0.179-2.674,0.331c-0.774,0.518-1.278,1.379-1.513,2.316
					c-0.246,0.94-0.353,1.931-0.357,2.926c-0.014,1.992,0.274,4.004,0.753,5.973c0.908,3.959,2.49,7.786,4.342,11.493
					c1.853,3.712,4.065,7.292,6.472,10.753c1.136,1.778,2.57,3.362,3.897,5.029c1.348,1.652,2.702,3.311,4.06,4.975l0.047,0.057
					l-0.239-0.093c2.127-0.309,4.246-0.617,6.357-0.925c2.105-0.335,4.236-0.523,6.272-1.081c4.11-0.942,8.157-2.106,12.027-3.607
					c3.865-1.499,7.612-3.267,10.948-5.588c1.68-1.135,3.246-2.432,4.577-3.915c0.667-0.739,1.254-1.545,1.706-2.406
					c0.457-0.852,0.664-1.828,0.441-2.733c-0.225-0.894-0.903-1.617-1.755-2.045c-0.843-0.447-1.791-0.705-2.745-0.881
					c-1.919-0.345-3.883-0.361-5.83-0.348c-0.977,0.01-1.952,0.02-2.923,0.03c-0.978-0.016-1.943,0.02-2.95-0.193
					c-0.243-0.074-0.536-0.112-0.773-0.445c-0.126-0.208-0.097-0.28-0.133-0.431c-0.021-0.133-0.027-0.271-0.018-0.41
					c0.026-0.575,0.383-1.064,0.765-1.39c0.789-0.675,1.696-1.006,2.517-1.471c3.353-1.775,6.576-3.705,9.505-5.93
					c1.457-1.118,2.846-2.311,4.032-3.661c1.171-1.333,2.207-2.892,2.36-4.607c0.08-0.851-0.135-1.701-0.598-2.402
					c-0.458-0.706-1.124-1.27-1.859-1.706c-1.481-0.876-3.166-1.362-4.836-1.724c-1.678-0.357-3.372-0.572-5.055-0.736
					c-0.845-0.081-1.687-0.16-2.524-0.24c-0.417-0.047-0.876-0.111-1.289-0.343c-0.422-0.214-0.753-0.745-0.673-1.239
					c0.118-0.96,0.864-1.633,1.516-2.083c0.656-0.498,1.308-0.993,1.956-1.485c1.298-0.985,2.581-1.959,3.851-2.923
					c2.539-1.927,5.021-3.811,7.443-5.649c2.386-1.879,4.935-3.459,6.733-5.693c0.905-1.09,1.617-2.341,1.848-3.684
					c0.211-1.318-0.111-2.773-0.943-3.743c-0.417-0.493-1.023-0.784-1.636-0.977c-0.617-0.206-1.275-0.268-1.921-0.316
					c-1.303-0.064-2.595,0.042-3.869,0.138c-0.638,0.047-1.272,0.093-1.909,0.1c-0.624,0.001-1.318-0.038-1.888-0.412
					c-0.589-0.36-0.857-1.04-0.954-1.652c-0.082-0.631-0.033-1.247,0.108-1.851l0.003-0.015l0.011-0.021
					c3.225-6.102,5.629-11.823,7.667-16.812c2.009-5.001,3.728-9.292,4.346-12.977c0.277-1.835,0.413-3.494,0.198-4.902
					c-0.19-1.406-0.627-2.545-1.163-3.342c-0.533-0.803-1.127-1.267-1.549-1.511c-0.424-0.248-0.666-0.324-0.666-0.324
					s0.252,0.047,0.688,0.286c0.433,0.234,1.045,0.693,1.599,1.5c0.556,0.802,1.014,1.953,1.219,3.374
					c0.231,1.424,0.108,3.097-0.158,4.947c-0.597,3.716-2.3,8.032-4.285,13.041c-2.019,5.006-4.398,10.731-7.619,16.873l0.015-0.036
					c-0.127,0.552-0.173,1.153-0.094,1.724c0.093,0.56,0.326,1.133,0.817,1.427c0.478,0.312,1.088,0.355,1.706,0.352
					c0.619-0.009,1.249-0.056,1.885-0.105c1.272-0.1,2.576-0.212,3.913-0.15c0.666,0.048,1.347,0.11,2.007,0.326
					c0.653,0.203,1.322,0.519,1.797,1.073c0.94,1.104,1.255,2.612,1.043,4.045c-0.244,1.438-0.993,2.742-1.919,3.865
					c-1.846,2.301-4.424,3.899-6.792,5.775c-2.417,1.842-4.893,3.729-7.427,5.659c-1.267,0.965-2.547,1.941-3.842,2.927
					c-0.647,0.493-1.298,0.989-1.952,1.487c-0.336,0.255-0.655,0.48-0.888,0.782c-0.234,0.299-0.43,0.652-0.46,1
					c-0.044,0.351,0.14,0.64,0.455,0.82c0.323,0.181,0.713,0.243,1.125,0.288c0.835,0.078,1.673,0.156,2.516,0.235
					c1.692,0.163,3.402,0.377,5.106,0.737c1.697,0.367,3.418,0.854,4.978,1.772c0.774,0.459,1.498,1.062,2.01,1.848
					c0.518,0.78,0.762,1.752,0.674,2.687c-0.173,1.898-1.273,3.511-2.469,4.883c-1.217,1.387-2.625,2.598-4.097,3.73
					c-2.959,2.253-6.198,4.195-9.567,5.983c-0.831,0.466-1.748,0.82-2.42,1.406c-0.335,0.292-0.582,0.65-0.599,1.054
					c-0.007,0.101-0.003,0.204,0.014,0.309c0.012,0.079,0.041,0.269,0.07,0.252c0.032,0.072,0.257,0.171,0.466,0.215
					c0.884,0.19,1.874,0.165,2.832,0.177c0.97-0.011,1.943-0.021,2.919-0.032c1.955-0.014,3.945-0.002,5.925,0.352
					c0.986,0.182,1.977,0.446,2.895,0.932c0.919,0.457,1.743,1.301,2.006,2.368c0.264,1.051,0.008,2.169-0.478,3.08
					c-0.481,0.92-1.093,1.755-1.779,2.517c-1.37,1.529-2.964,2.846-4.666,3.999c-3.383,2.354-7.161,4.137-11.054,5.649
					c-3.901,1.514-7.957,2.682-12.104,3.633c-2.061,0.563-4.185,0.75-6.296,1.086c-2.115,0.308-4.237,0.617-6.367,0.927
					l-0.146,0.021l-0.093-0.114l-0.047-0.057c-1.36-1.667-2.715-3.328-4.065-4.982c-1.33-1.671-2.761-3.25-3.911-5.048
					c-2.427-3.491-4.644-7.081-6.511-10.823c-1.864-3.735-3.46-7.594-4.379-11.61c-0.484-1.998-0.778-4.043-0.763-6.095
					c0.005-1.025,0.113-2.054,0.378-3.058c0.253-1,0.816-2.001,1.72-2.599c0.912-0.611,2.089-0.68,3.076-0.4
					c1.006,0.258,1.916,0.729,2.768,1.257c1.703,1.069,3.183,2.398,4.62,3.722c0.715,0.664,1.428,1.326,2.139,1.986
					c0.716,0.635,1.432,1.319,2.214,1.773c0.184,0.108,0.417,0.186,0.49,0.155c0.011,0.031,0.158-0.087,0.221-0.139
					c0.083-0.066,0.156-0.14,0.218-0.218c0.26-0.31,0.318-0.741,0.267-1.182c-0.102-0.885-0.543-1.764-0.845-2.667
					c-1.291-3.588-2.383-7.203-3.059-10.859c-0.328-1.828-0.557-3.67-0.525-5.515c0.037-1.819,0.306-3.752,1.452-5.275
					c0.562-0.751,1.394-1.311,2.302-1.539c0.907-0.239,1.849-0.199,2.73-0.02c1.773,0.368,3.374,1.164,4.877,2.033
					c1.504,0.879,2.913,1.87,4.275,2.887c0.677,0.508,1.35,1.014,2.021,1.518c0.335,0.245,0.665,0.461,1.026,0.547
					c0.354,0.081,0.686-0.006,0.891-0.294c0.215-0.274,0.306-0.669,0.336-1.047c0.031-0.382-0.052-0.761-0.13-1.176
					c-0.149-0.809-0.297-1.613-0.445-2.414c-0.295-1.601-0.587-3.184-0.876-4.75c-0.577-3.132-1.141-6.194-1.692-9.183
					c-0.491-2.982-1.325-5.898-1.146-8.842c0.069-1.455,0.391-2.924,1.176-4.153c0.806-1.204,2.052-2.109,3.49-2.298
					c0.724-0.092,1.432,0.125,2.053,0.412c0.635,0.283,1.18,0.695,1.706,1.108c1.032,0.853,1.922,1.814,2.797,2.743
					c0.438,0.464,0.872,0.923,1.325,1.346c0.455,0.418,0.936,0.797,1.499,0.888c0.562,0.113,1.119-0.154,1.565-0.506
					c0.442-0.37,0.813-0.846,1.09-1.34l-0.013,0.036c1.748-6.724,3.842-12.572,5.717-17.643c1.902-5.051,3.547-9.4,5.63-12.546
					c1.06-1.546,2.122-2.847,3.261-3.736c1.128-0.894,2.259-1.409,3.216-1.604c0.959-0.198,1.719-0.116,2.196,0.011
					C427.112,175.712,427.33,175.848,427.33,175.848z"/>
			</g>
		</g>
		<g>
			<g>
				<path style="fill:#263238;" d="M422.084,189.452c0.008,0.003-0.026,0.114-0.101,0.327c-0.087,0.237-0.201,0.548-0.345,0.94
					c-0.326,0.853-0.785,2.058-1.372,3.595c-1.213,3.149-2.949,7.653-5.088,13.206c-4.261,11.195-10.128,26.61-16.609,43.637
					c-6.464,17.056-12.375,32.473-16.755,43.593c-2.188,5.561-3.979,10.053-5.243,13.146c-0.626,1.522-1.116,2.715-1.463,3.559
					c-0.164,0.384-0.294,0.688-0.393,0.921c-0.091,0.206-0.142,0.31-0.15,0.307c-0.008-0.003,0.026-0.114,0.101-0.327
					c0.087-0.237,0.201-0.548,0.345-0.94c0.325-0.853,0.785-2.058,1.372-3.595c1.213-3.149,2.948-7.652,5.088-13.205
					c4.261-11.195,10.129-26.611,16.612-43.644c6.462-17.05,12.372-32.466,16.753-43.586c2.188-5.561,3.979-10.053,5.243-13.147
					c0.626-1.522,1.116-2.715,1.463-3.56c0.164-0.384,0.293-0.688,0.393-0.921C422.025,189.552,422.076,189.448,422.084,189.452z"/>
			</g>
		</g>
		<g>
			<g>
				<path style="fill:#263238;" d="M422.623,223.96c0.033,0.067-0.934,0.615-2.502,1.486c-1.714,0.954-3.809,2.119-6.125,3.407
					c-2.394,1.331-4.575,2.517-6.183,3.322c-1.608,0.808-2.642,1.227-2.671,1.165c-0.032-0.067,0.94-0.601,2.498-1.489
					c1.708-0.966,3.795-2.147,6.104-3.453c2.395-1.331,4.592-2.489,6.207-3.278C421.566,224.33,422.592,223.898,422.623,223.96z"/>
			</g>
		</g>
		<g>
			<g>
				<path style="fill:#263238;" d="M404.33,232.736c-0.129,0.064-2.507-4.474-5.311-10.135c-2.805-5.663-4.974-10.303-4.845-10.367
					c0.129-0.064,2.506,4.473,5.311,10.136C402.29,228.031,404.459,232.672,404.33,232.736z"/>
			</g>
		</g>
		<g>
			<g>
				<path style="fill:#263238;" d="M395.586,259.371c-0.048,0.048-0.899-0.706-2.199-2.003c-1.296-1.3-3.039-3.146-4.847-5.288
					c-1.813-2.139-3.35-4.161-4.413-5.657c-1.064-1.496-1.667-2.46-1.611-2.5c0.061-0.044,0.769,0.843,1.905,2.279
					c1.136,1.436,2.711,3.413,4.516,5.542c1.8,2.133,3.492,4.01,4.717,5.371C394.883,258.473,395.64,259.318,395.586,259.371z"/>
			</g>
		</g>
		<g>
			<g>
				<path style="fill:#263238;" d="M413.879,255.075c0.016,0.07-0.993,0.36-2.637,0.772c-1.643,0.412-3.921,0.946-6.444,1.505
					c-2.524,0.559-4.814,1.036-6.478,1.356s-2.7,0.483-2.716,0.413c-0.016-0.07,0.993-0.36,2.636-0.772
					c1.643-0.412,3.921-0.946,6.445-1.505c2.523-0.559,4.813-1.036,6.477-1.356S413.864,255.004,413.879,255.075z"/>
			</g>
		</g>
		<g>
			<g>
				<path style="fill:#263238;" d="M409.147,279.569c0.015,0.07-1.285,0.412-3.399,0.907c-2.114,0.495-5.042,1.144-8.282,1.829
					c-3.241,0.685-6.181,1.277-8.315,1.68c-2.133,0.403-3.46,0.617-3.475,0.547c-0.015-0.07,1.285-0.412,3.399-0.907
					c2.114-0.495,5.042-1.144,8.283-1.829c3.24-0.685,6.18-1.277,8.313-1.68C407.805,279.713,409.132,279.499,409.147,279.569z"/>
			</g>
		</g>
		<g>
			<g>
				<path style="fill:#263238;" d="M386.204,284.254c-0.027,0.024-0.293-0.22-0.751-0.682c-0.46-0.461-1.106-1.147-1.893-2.005
					c-1.568-1.719-3.684-4.145-5.901-6.92c-2.222-2.773-4.129-5.365-5.461-7.274c-0.667-0.954-1.191-1.736-1.542-2.285
					c-0.35-0.549-0.53-0.862-0.501-0.883c0.029-0.021,0.265,0.253,0.666,0.765c0.467,0.609,1.024,1.337,1.674,2.185
					c1.405,1.85,3.353,4.4,5.57,7.166c2.211,2.768,4.276,5.224,5.771,7.003C385.335,283.101,386.26,284.204,386.204,284.254z"/>
			</g>
		</g>
	</g>
	<g>
		<g>
			<g>
				<path style="fill:#E8505B;" d="M376.201,351.241c-17.364-13.994-19.88-37.929-17.7-59.14c0.363-3.54,0.23-7.309,2.132-10.307
					c1.903-2.997,5.987-4.855,9.062-3.142c2.551,1.421,3.489,4.566,4.789,7.202c1.73,3.508,4.461,6.5,7.778,8.521
					c2.179,1.328,4.926,2.237,7.241,1.159c3.177-1.479,3.828-5.683,4.048-9.215c0.41-6.582,0.821-13.163,1.23-19.743
					c0.22-3.531,0.457-7.136,1.784-10.41c1.327-3.275,3.967-6.22,7.389-6.931c3.423-0.71,7.442,1.511,7.914,5.014
					c0.197,1.458-0.199,2.93-0.201,4.402c-0.003,1.472,0.569,3.14,1.932,3.644c1.38,0.511,2.862-0.393,3.987-1.354
					c3.888-3.314,6.675-7.735,9.298-12.142c2.624-4.407,5.187-8.928,8.759-12.588c3.572-3.66,8.356-6.427,13.43-6.367
					c5.075,0.061,10.247,3.55,11.184,8.6c0.94,5.064-2.31,9.914-5.745,13.725c-5.097,5.655-11.004,10.559-17.477,14.512
					c-1.167,0.713-2.431,1.484-2.946,2.762c-0.928,2.301,1.141,4.791,3.411,5.724c2.571,1.057,5.444,0.979,8.174,1.492
					c2.73,0.513,5.628,1.931,6.491,4.604c1.198,3.707-2.078,7.281-5.217,9.554c-6.285,4.552-13.342,8.004-20.766,10.16
					c-2.662,0.772-5.451,1.418-7.67,3.098c-2.219,1.682-3.7,4.767-2.606,7.339c1.095,2.576,4.287,3.594,7.042,3.276
					c2.753-0.317,5.29-1.627,7.948-2.427c4.976-1.498,11.217-0.734,14.037,3.671c1.853,2.896,1.77,6.745,0.511,9.959
					c-1.257,3.214-3.546,5.9-5.949,8.356c-8.4,8.588-18.856,15.248-30.377,18.378C397.602,355.757,387.103,356.097,376.201,351.241"
					/>
			</g>
		</g>
		<g style="opacity:0.1;">
			<g>
				<path d="M376.201,351.241c-17.364-13.994-19.88-37.929-17.7-59.14c0.363-3.54,0.23-7.309,2.132-10.307
					c1.903-2.997,5.987-4.855,9.062-3.142c2.551,1.421,3.489,4.566,4.789,7.202c1.73,3.508,4.461,6.5,7.778,8.521
					c2.179,1.328,4.926,2.237,7.241,1.159c3.177-1.479,3.828-5.683,4.048-9.215c0.41-6.582,0.821-13.163,1.23-19.743
					c0.22-3.531,0.457-7.136,1.784-10.41c1.327-3.275,3.967-6.22,7.389-6.931c3.423-0.71,7.442,1.511,7.914,5.014
					c0.197,1.458-0.199,2.93-0.201,4.402c-0.003,1.472,0.569,3.14,1.932,3.644c1.38,0.511,2.862-0.393,3.987-1.354
					c3.888-3.314,6.675-7.735,9.298-12.142c2.624-4.407,5.187-8.928,8.759-12.588c3.572-3.66,8.356-6.427,13.43-6.367
					c5.075,0.061,10.247,3.55,11.184,8.6c0.94,5.064-2.31,9.914-5.745,13.725c-5.097,5.655-11.004,10.559-17.477,14.512
					c-1.167,0.713-2.431,1.484-2.946,2.762c-0.928,2.301,1.141,4.791,3.411,5.724c2.571,1.057,5.444,0.979,8.174,1.492
					c2.73,0.513,5.628,1.931,6.491,4.604c1.198,3.707-2.078,7.281-5.217,9.554c-6.285,4.552-13.342,8.004-20.766,10.16
					c-2.662,0.772-5.451,1.418-7.67,3.098c-2.219,1.682-3.7,4.767-2.606,7.339c1.095,2.576,4.287,3.594,7.042,3.276
					c2.753-0.317,5.29-1.627,7.948-2.427c4.976-1.498,11.217-0.734,14.037,3.671c1.853,2.896,1.77,6.745,0.511,9.959
					c-1.257,3.214-3.546,5.9-5.949,8.356c-8.4,8.588-18.856,15.248-30.377,18.378C397.602,355.757,387.103,356.097,376.201,351.241"
					/>
			</g>
		</g>
		<g>
			<g>
				<g>
					<path style="fill:#263238;" d="M374.841,366.984c1.348-8.37,3.877-18.189,7.763-28.695c3.865-10.515,9.058-21.689,14.891-33.19
						c1.469-2.869,2.92-5.705,4.35-8.499c1.434-2.786,2.856-5.55,4.414-8.166c3.094-5.248,6.468-10.058,9.814-14.523
						c3.345-4.469,6.682-8.587,9.83-12.415c3.158-3.823,6.169-7.331,9.049-10.411c5.743-6.184,10.957-10.614,14.659-13.509
						c1.849-1.454,3.32-2.535,4.327-3.254c0.484-0.341,0.864-0.609,1.15-0.811c0.261-0.179,0.398-0.266,0.405-0.257
						c0.007,0.009-0.117,0.115-0.365,0.312c-0.276,0.214-0.645,0.5-1.112,0.863c-0.981,0.753-2.426,1.866-4.249,3.348
						c-3.649,2.953-8.796,7.421-14.48,13.626c-2.851,3.091-5.834,6.608-8.969,10.441c-3.128,3.841-6.445,7.965-9.769,12.432
						c-3.324,4.465-6.674,9.264-9.743,14.488c-1.546,2.605-2.952,5.345-4.388,8.139c-1.429,2.793-2.878,5.628-4.345,8.496
						c-5.827,11.492-11.023,22.632-14.909,33.103c-3.903,10.461-6.468,20.229-7.869,28.559"/>
				</g>
			</g>
		</g>
		<g>
			<g>
				<g>
					<path style="fill:#263238;" d="M406.446,288.421c-0.044,0.004-0.128-0.54-0.242-1.529c-0.119-0.988-0.243-2.423-0.37-4.198
						c-0.258-3.548-0.447-8.461-0.635-13.878c-0.188-5.42-0.446-10.316-0.757-13.851c-0.151-1.768-0.287-3.198-0.394-4.184
						c-0.101-0.988-0.137-1.538-0.092-1.546c0.044-0.007,0.164,0.53,0.342,1.51c0.184,0.978,0.391,2.404,0.6,4.172
						c0.431,3.535,0.763,8.448,0.95,13.873c0.172,5.346,0.327,10.182,0.445,13.878c0.064,1.669,0.119,3.076,0.163,4.205
						C406.492,287.865,406.491,288.417,406.446,288.421z"/>
				</g>
			</g>
		</g>
		<g>
			<g>
				<g>
					<path style="fill:#263238;" d="M452.408,283.053c-0.002,0.045-0.653,0.076-1.825,0.093c-1.172,0.024-2.867,0.049-4.96,0.148
						c-4.187,0.163-9.963,0.592-16.315,1.343c-6.353,0.763-12.072,1.698-16.189,2.494c-2.063,0.383-3.723,0.738-4.872,0.977
						c-1.148,0.243-1.789,0.357-1.801,0.313c-0.011-0.045,0.61-0.242,1.742-0.563c1.134-0.315,2.783-0.74,4.84-1.184
						c4.105-0.915,9.833-1.926,16.205-2.692c6.371-0.753,12.174-1.11,16.378-1.154c2.102-0.039,3.803,0.006,4.977,0.062
						C451.761,282.952,452.409,283.007,452.408,283.053z"/>
				</g>
			</g>
		</g>
		<g>
			<g>
				<g>
					<path style="fill:#263238;" d="M383.219,337.492c-0.021,0.008-0.114-0.19-0.273-0.575c-0.18-0.458-0.398-1.018-0.663-1.695
						c-0.569-1.474-1.338-3.63-2.253-6.304c-1.833-5.349-4.132-12.817-6.558-21.092c-2.428-8.279-4.654-15.758-6.372-21.137
						c-0.843-2.616-1.538-4.767-2.054-6.366c-0.22-0.694-0.401-1.266-0.549-1.736c-0.119-0.398-0.171-0.612-0.15-0.621
						c0.021-0.007,0.114,0.191,0.273,0.576c0.179,0.458,0.398,1.016,0.663,1.694c0.57,1.474,1.338,3.63,2.253,6.304
						c1.833,5.349,4.132,12.817,6.558,21.096c2.427,8.276,4.653,15.755,6.371,21.135c0.845,2.614,1.538,4.767,2.054,6.365
						c0.22,0.694,0.401,1.267,0.549,1.736C383.188,337.272,383.24,337.485,383.219,337.492z"/>
				</g>
			</g>
		</g>
		<g>
			<g>
				<g>
					<path style="fill:#263238;" d="M444.855,322.194c0.004,0.022-0.208,0.092-0.615,0.206c-0.482,0.126-1.074,0.28-1.792,0.467
						c-1.654,0.414-3.886,0.972-6.601,1.65c-5.574,1.395-13.249,3.408-21.728,5.645c-8.481,2.239-16.183,4.184-21.787,5.462
						c-2.802,0.641-5.074,1.136-6.651,1.446c-0.729,0.139-1.33,0.253-1.818,0.347c-0.417,0.072-0.639,0.099-0.644,0.076
						c-0.004-0.022,0.208-0.092,0.615-0.207c0.481-0.125,1.073-0.279,1.792-0.466c1.654-0.414,3.885-0.971,6.6-1.65
						c5.574-1.393,13.25-3.408,21.732-5.646c8.479-2.238,16.18-4.183,21.784-5.462c2.802-0.641,5.074-1.136,6.652-1.446
						c0.729-0.139,1.329-0.254,1.818-0.347C444.629,322.198,444.85,322.172,444.855,322.194z"/>
				</g>
			</g>
		</g>
	</g>
</g>
<g id="Checklist">
	<g>
		<g>
			<rect x="137.733" y="75.191" style="fill:#455A64;" width="242.507" height="332.303"/>
		</g>
		<g>
			<polygon style="fill:#E0E0E0;" points="370.654,387.73 325.739,387.73 157.926,387.73 157.926,88.621 370.654,88.621 
				370.654,350.519 			"/>
		</g>
		<g>
			<polygon style="fill:#EBEBEB;" points="367.294,382.181 322.784,382.181 156.482,382.181 156.482,84.666 367.294,84.666 
				367.294,345.168 			"/>
		</g>
		<g>
			<g>
				<polygon style="fill:#FAFAFA;" points="344.641,359.028 320.36,378.799 152.546,378.799 152.546,85.421 365.275,85.421 
					365.275,342.301 				"/>
			</g>
			<g>
				<g>
					<path style="fill:#263238;" d="M344.641,359.028c0,0,0.43-0.367,1.296-1.079c0.872-0.713,2.17-1.774,3.89-3.18
						c3.455-2.813,8.604-7.004,15.395-12.532l-0.031,0.064c-0.025-42.196-0.081-135.957-0.152-256.88l0.235,0.235
						c-63.347,0.007-135.121,0.016-210.871,0.025c-0.625,0-1.251,0-1.857,0l0.26-0.26c-0.019,110.295-0.037,212.045-0.052,293.378
						l-0.209-0.208c76.603,0.055,135.449,0.096,167.813,0.12l-0.056,0.02c8.098-6.569,14.176-11.5,18.234-14.792
						c2.028-1.638,3.55-2.868,4.569-3.691C344.125,359.428,344.641,359.028,344.641,359.028s-0.497,0.424-1.504,1.255
						c-1.013,0.832-2.526,2.073-4.541,3.727c-4.046,3.307-10.106,8.26-18.18,14.859l-0.024,0.02h-0.032
						c-32.365,0.023-91.21,0.065-167.813,0.12l-0.209,0l0-0.209c-0.014-81.333-0.032-183.083-0.052-293.378v-0.26h0.26
						c0.607,0,1.232,0,1.857,0c75.751,0.009,147.525,0.018,210.871,0.025h0.236l0,0.235c-0.072,120.924-0.127,214.684-0.152,256.88
						v0.04l-0.031,0.025c-6.814,5.501-11.979,9.671-15.446,12.47c-1.732,1.392-3.038,2.442-3.916,3.147
						C345.089,358.683,344.641,359.028,344.641,359.028z"/>
				</g>
			</g>
		</g>
		<g>
			<path style="fill:#E8505B;" d="M302.518,94.764h-87.064V79.675c0-8.15,6.607-14.757,14.757-14.757h58.152
				c7.817,0,14.154,6.337,14.154,14.154V94.764z"/>
		</g>
		<g>
			<polygon style="fill:#E8505B;" points="236.778,64.918 233.596,48.818 283.725,48.818 280.94,64.918 			"/>
		</g>
		<g>
			<g>
				<path style="fill:#E8505B;" d="M210.635,168h-35.839v-35.839h35.839V168z M175.796,167h33.839v-33.839h-33.839V167z"/>
			</g>
			<g>
				<g>
					<path style="fill:#263238;" d="M337.277,140.816c0,0.144-24.947,0.26-55.712,0.26c-30.777,0-55.718-0.117-55.718-0.26
						c0-0.144,24.941-0.26,55.718-0.26C312.331,140.555,337.277,140.672,337.277,140.816z"/>
				</g>
			</g>
			<g>
				<g>
					<path style="fill:#263238;" d="M337.277,148.263c0,0.144-24.947,0.26-55.712,0.26c-30.777,0-55.718-0.117-55.718-0.26
						c0-0.144,24.941-0.26,55.718-0.26C312.331,148.003,337.277,148.119,337.277,148.263z"/>
				</g>
			</g>
			<g>
				<g>
					<path style="fill:#263238;" d="M337.277,155.71c0,0.144-24.947,0.26-55.712,0.26c-30.777,0-55.718-0.117-55.718-0.26
						c0-0.144,24.941-0.26,55.718-0.26C312.331,155.45,337.277,155.566,337.277,155.71z"/>
				</g>
			</g>
			<g>
				<g>
					<path style="fill:#263238;" d="M337.277,163.157c0,0.144-24.947,0.26-55.712,0.26c-30.777,0-55.718-0.117-55.718-0.26
						s24.941-0.26,55.718-0.26C312.331,162.897,337.277,163.014,337.277,163.157z"/>
				</g>
			</g>
		</g>
		<g>
			<g>
				<path style="fill:#E8505B;" d="M210.635,223.233h-35.839v-35.838h35.839V223.233z M175.796,222.233h33.839v-33.838h-33.839
					V222.233z"/>
			</g>
			<g>
				<polygon style="fill:#E8505B;" points="181.923,206.051 186.681,200.941 194.61,207.285 212.76,189.664 217.108,194.788 
					194.258,217.329 				"/>
			</g>
			<g>
				<g>
					<path style="fill:#263238;" d="M337.277,196.049c0,0.144-24.947,0.26-55.712,0.26c-30.777,0-55.718-0.117-55.718-0.26
						s24.941-0.26,55.718-0.26C312.331,195.788,337.277,195.905,337.277,196.049z"/>
				</g>
			</g>
			<g>
				<g>
					<path style="fill:#263238;" d="M337.277,203.496c0,0.144-24.947,0.26-55.712,0.26c-30.777,0-55.718-0.117-55.718-0.26
						s24.941-0.26,55.718-0.26C312.331,203.236,337.277,203.352,337.277,203.496z"/>
				</g>
			</g>
			<g>
				<g>
					<path style="fill:#263238;" d="M337.277,210.943c0,0.144-24.947,0.26-55.712,0.26c-30.777,0-55.718-0.117-55.718-0.26
						s24.941-0.26,55.718-0.26C312.331,210.683,337.277,210.8,337.277,210.943z"/>
				</g>
			</g>
			<g>
				<g>
					<path style="fill:#263238;" d="M337.277,218.391c0,0.144-24.947,0.26-55.712,0.26c-30.777,0-55.718-0.117-55.718-0.26
						c0-0.144,24.941-0.26,55.718-0.26C312.331,218.13,337.277,218.247,337.277,218.391z"/>
				</g>
			</g>
		</g>
		<g>
			<g>
				<path style="fill:#E8505B;" d="M210.635,276.681h-35.839v-35.839h35.839V276.681z M175.796,275.681h33.839v-33.839h-33.839
					V275.681z"/>
			</g>
			<g>
				<polygon style="fill:#E8505B;" points="181.923,259.499 186.681,254.389 194.61,260.733 212.76,243.112 217.108,248.236 
					194.258,270.777 				"/>
			</g>
			<g>
				<g>
					<path style="fill:#263238;" d="M337.277,249.497c0,0.144-24.947,0.26-55.712,0.26c-30.777,0-55.718-0.117-55.718-0.26
						s24.941-0.26,55.718-0.26C312.331,249.237,337.277,249.353,337.277,249.497z"/>
				</g>
			</g>
			<g>
				<g>
					<path style="fill:#263238;" d="M337.277,256.944c0,0.144-24.947,0.26-55.712,0.26c-30.777,0-55.718-0.117-55.718-0.26
						s24.941-0.26,55.718-0.26C312.331,256.684,337.277,256.801,337.277,256.944z"/>
				</g>
			</g>
			<g>
				<g>
					<path style="fill:#263238;" d="M337.277,264.392c0,0.144-24.947,0.26-55.712,0.26c-30.777,0-55.718-0.117-55.718-0.26
						c0-0.144,24.941-0.26,55.718-0.26C312.331,264.131,337.277,264.248,337.277,264.392z"/>
				</g>
			</g>
			<g>
				<g>
					<path style="fill:#263238;" d="M337.277,271.839c0,0.144-24.947,0.26-55.712,0.26c-30.777,0-55.718-0.117-55.718-0.26
						c0-0.144,24.941-0.26,55.718-0.26C312.331,271.578,337.277,271.695,337.277,271.839z"/>
				</g>
			</g>
		</g>
		<g>
			<g>
				<path style="fill:#E8505B;" d="M210.635,328.286h-35.839v-35.839h35.839V328.286z M175.796,327.286h33.839v-33.839h-33.839
					V327.286z"/>
			</g>
			<g>
				<polygon style="fill:#E8505B;" points="181.923,311.105 186.681,305.995 194.61,312.338 212.76,294.717 217.108,299.842 
					194.258,322.382 				"/>
			</g>
			<g>
				<g>
					<path style="fill:#263238;" d="M337.277,301.103c0,0.144-24.947,0.26-55.712,0.26c-30.777,0-55.718-0.117-55.718-0.26
						s24.941-0.26,55.718-0.26C312.331,300.842,337.277,300.959,337.277,301.103z"/>
				</g>
			</g>
			<g>
				<g>
					<path style="fill:#263238;" d="M337.277,308.55c0,0.144-24.947,0.26-55.712,0.26c-30.777,0-55.718-0.117-55.718-0.26
						s24.941-0.26,55.718-0.26C312.331,308.289,337.277,308.406,337.277,308.55z"/>
				</g>
			</g>
			<g>
				<g>
					<path style="fill:#263238;" d="M337.277,315.997c0,0.144-24.947,0.26-55.712,0.26c-30.777,0-55.718-0.117-55.718-0.26
						s24.941-0.26,55.718-0.26C312.331,315.737,337.277,315.853,337.277,315.997z"/>
				</g>
			</g>
			<g>
				<g>
					<path style="fill:#263238;" d="M337.277,323.444c0,0.144-24.947,0.26-55.712,0.26c-30.777,0-55.718-0.117-55.718-0.26
						s24.941-0.26,55.718-0.26C312.331,323.184,337.277,323.301,337.277,323.444z"/>
				</g>
			</g>
		</g>
		<g>
			<polygon style="fill:#E0E0E0;" points="327.03,330.226 303.708,378.527 320.36,378.527 			"/>
		</g>
		<g>
			<g>
				<polygon style="fill:#FAFAFA;" points="320.36,378.799 327.03,330.498 365.275,342.301 				"/>
			</g>
			<g>
				<g>
					<path style="fill:#263238;" d="M320.36,378.799c0.939-0.773,5.068-4.171,12.861-10.586c7.992-6.542,19.145-15.673,31.894-26.11
						l0.085,0.441c-4.744-1.462-9.692-2.987-14.765-4.551c-8.278-2.56-16.219-5.016-23.476-7.261l0.315-0.201
						c-1.999,14.03-3.711,26.048-4.928,34.591C321.139,373.429,320.517,377.716,320.36,378.799
						c-0.004,0.006,0.004-0.066,0.022-0.214c0.022-0.172,0.049-0.392,0.084-0.668c0.082-0.626,0.197-1.504,0.344-2.63
						c0.31-2.346,0.755-5.72,1.314-9.956c1.152-8.611,2.772-20.724,4.664-34.865l0.038-0.286l0.277,0.085
						c7.26,2.236,15.204,4.682,23.485,7.232c5.073,1.568,10.019,3.096,14.762,4.562l0.457,0.141l-0.372,0.3
						c-12.903,10.408-24.191,19.514-32.28,26.038c-3.994,3.21-7.197,5.783-9.426,7.575c-1.078,0.864-1.919,1.538-2.514,2.016
						c-0.268,0.213-0.481,0.382-0.644,0.512C320.427,378.752,320.356,378.806,320.36,378.799z"/>
				</g>
			</g>
		</g>
		<g style="opacity:0.3;">
			<polyline points="280.262,48.818 277.498,64.918 280.94,64.918 283.725,48.818 279.34,48.818 			"/>
		</g>
	</g>
</g>
<g id="Character">
	<g>
		<g>
			<g>
				<g>
					<g>
						<g>
							<g>
								<g>
									<path style="fill:#FFBE9D;" d="M133.428,218.623L133.428,218.623c5.088,0.391,9.48-3.526,9.677-8.625
										c0.188-4.897,0.353-9.847,0.353-9.847s7.42-0.695,7.958-8.039c0.538-7.344,0.292-24.297,0.292-24.297l0,0
										c-8.285-4.174-18.179-3.538-25.861,1.663l0.458,25.845v13.904C126.353,213.892,128.777,218.266,133.428,218.623z"/>
								</g>
							</g>
						</g>
					</g>
				</g>
			</g>
			<g>
				<path style="fill:#263238;" d="M144.096,183.147c-1.267-1.57-3.327-2.195-5.018-1.096c-1.692,1.099-2.342,3.542-1.422,5.337
					c0.649,1.267,2.128,2.415,3.603,2.724c1.387,0.291,2.37,1.629,2.208,3.037c-0.211,1.843-1.194,3.588-2.578,5.114
					c-2.152,2.373-5.319,3.651-8.5,4.027c-3.128,0.37-6.711-0.282-8.53-2.853c-1.324-1.87-1.42-4.315-1.467-6.606
					c-0.112-5.415-0.224-10.829-0.336-16.243c-0.04-1.952-0.078-3.928,0.37-5.828c0.448-1.9,1.443-3.747,3.074-4.82
					c1.786-1.176,4.049-1.276,6.084-1.934c2.543-0.822,4.703-2.51,7.083-3.727c2.38-1.217,5.297-1.945,7.686-0.746
					c1.715,0.861,2.864,2.572,4.532,3.521c2.374,1.35,5.606,1.044,6.759,4.535c0.398,1.206,0.368,2.531-0.04,3.734
					c-1.61,4.751-7.494,6.666-11.732,4.613c-0.084,0.805,0.709,2.596-0.138,5.138C145.462,181.885,145.366,183.124,144.096,183.147"
					/>
			</g>
			<g>
				<path style="fill:#263238;" d="M123.831,168.03c1.042-2.374,2.097-4.797,2.359-7.377c0.262-2.579-0.393-5.389-2.314-7.129
					c-1.3-1.177-3.087-1.764-4.841-1.712c-3.357,0.098-6.464,2.616-7.38,5.847c-0.915,3.231,0.348,6.932,2.968,9.033
					c2.62,2.101,6.422,2.55,9.514,1.241"/>
			</g>
			<g>
				<g>
					<path style="fill:#E8505B;" d="M125.274,165.352c0.139-0.004,0.02,1.307-1.083,2.372c-1.092,1.078-2.404,1.165-2.397,1.027
						c-0.035-0.149,1.076-0.443,2.034-1.399C124.806,166.417,125.126,165.313,125.274,165.352z"/>
				</g>
			</g>
			<g>
				<g>
					<path style="fill:#263238;" d="M122.858,167.146c0.029,0.042-0.649,0.7-1.994,1.458c-0.675,0.359-1.567,0.729-2.628,0.744
						c-1.026,0.022-2.306-0.325-3.065-1.375c-0.75-1.04-0.778-2.318-0.543-3.321c0.245-1.032,0.772-1.822,1.235-2.431
						c0.967-1.197,1.698-1.788,1.738-1.752c0.068,0.058-0.578,0.754-1.44,1.969c-0.41,0.612-0.872,1.387-1.064,2.318
						c-0.191,0.919-0.132,2.048,0.495,2.909c0.621,0.868,1.711,1.196,2.644,1.203c0.952,0.013,1.794-0.289,2.465-0.594
						C122.038,167.628,122.809,167.068,122.858,167.146z"/>
				</g>
			</g>
			<g>
				<g>
					<path style="fill:#263238;" d="M110.376,175.441c0.036-0.011,0.154,0.284,0.358,0.814c0.211,0.522,0.49,1.307,1.082,2.093
						c0.572,0.754,1.632,1.564,2.876,1.322c1.232-0.235,2.323-1.37,2.767-2.786c0.477-1.428,0.511-2.922,0.751-4.266
						c0.221-1.344,0.671-2.571,1.402-3.365c0.713-0.796,1.556-1.147,2.138-1.219c0.591-0.081,0.907,0.057,0.899,0.076
						c-0.004,0.051-0.325-0.014-0.861,0.123c-0.529,0.126-1.275,0.498-1.897,1.26c-0.629,0.749-1.019,1.895-1.208,3.202
						c-0.211,1.305-0.223,2.819-0.732,4.357c-0.482,1.532-1.708,2.842-3.176,3.09c-0.727,0.131-1.448-0.06-1.991-0.385
						c-0.55-0.326-0.961-0.759-1.266-1.191c-0.599-0.879-0.822-1.701-0.978-2.248C110.395,175.763,110.343,175.451,110.376,175.441z
						"/>
				</g>
			</g>
		</g>
		<g>
			<path style="fill:#FFBE9D;" d="M106.767,237.134c0,0-3.743,27.42,0,30.896c3.743,3.476,7.346,2.322,7.346,2.322l7.127-5.96
				l1.403-27.258H106.767z"/>
		</g>
		<g>
			<g>
				<polygon style="fill:#E8505B;" points="184.223,160.159 188.981,155.049 196.91,161.393 215.06,143.771 219.408,148.896 
					196.558,171.437 				"/>
			</g>
			<g>
				<path style="fill:#FFBE9D;" d="M206.58,161.551l-6.9,4.428c-0.312-2.727-2.394-5.43-2.287-4.061
					c0.107,1.37,0.013,8.478,0.013,8.478l-12.305,25.892c-1.673,4.102-5.06,6.68-7.592,7.289l-11.486,3.415l4.49,15.185
					l15.964-5.293c4.142-1.373,7.388-4.629,8.749-8.775l11.005-33.524c0,0,1.307-3.811,1.778-6.605
					C208.479,165.187,206.58,161.551,206.58,161.551z"/>
			</g>
		</g>
		<g>
			<g>
				<g>
					<g>
						<g>
							<g>
								<path style="fill:#E8505B;" d="M150.046,444.725l-0.172-7.677l-14.383,0.23l0.132,11.235l0.893,0.043
									c3.972,0.157,20.21,0.518,22.85-0.329C162.311,447.281,150.046,444.725,150.046,444.725z"/>
							</g>
						</g>
					</g>
					<g style="opacity:0.5;">
						<g>
							<g>
								<path style="fill:#FFFFFF;" d="M140.836,448.316c-0.224-1.198-0.91-2.304-1.884-3.037c-0.974-0.733-2.165-1.109-3.379-0.992
									l0.061,4.02L140.836,448.316z"/>
							</g>
						</g>
					</g>
				</g>
				<g style="opacity:0.4;">
					<g>
						<g>
							<path style="fill:#FFFFFF;" d="M156.042,446.187c0,0,4.303,1.167,3.78,1.881c-0.523,0.714-16.945,0.966-24.199,0.444
								l0.018-0.322l19.158-0.131C154.799,448.059,155.205,446.235,156.042,446.187z"/>
						</g>
					</g>
				</g>
				<g>
					<g>
						<g>
							<g>
								<path style="fill:#263238;" d="M135.415,448.185c0,0.006,0.085,0.014,0.248,0.023c0.213,0.01,0.447,0.02,0.711,0.032
									c0.711,0.02,1.585,0.044,2.616,0.072c2.209,0.045,5.262,0.068,8.634,0.019c3.372-0.05,6.424-0.161,8.631-0.271
									c1.03-0.059,1.903-0.108,2.613-0.149c0.263-0.02,0.497-0.037,0.71-0.053c0.162-0.014,0.247-0.024,0.247-0.03
									c0-0.006-0.086-0.008-0.249-0.005c-0.214,0.006-0.447,0.013-0.711,0.02c-0.71,0.025-1.584,0.057-2.614,0.093
									c-2.207,0.079-5.258,0.171-8.628,0.22c-3.369,0.049-6.421,0.046-8.63,0.032c-1.031-0.007-1.905-0.012-2.616-0.017
									c-0.264,0-0.498,0.001-0.712,0.001C135.501,448.175,135.415,448.179,135.415,448.185z"/>
							</g>
						</g>
					</g>
				</g>
				<g>
					<g>
						<g>
							<g>
								<path style="fill:#263238;" d="M154.798,448.282c0.053,0.006,0.085-0.619,0.469-1.255c0.374-0.643,0.906-0.971,0.876-1.014
									c-0.011-0.043-0.623,0.237-1.026,0.926C154.707,447.622,154.755,448.293,154.798,448.282z"/>
							</g>
						</g>
					</g>
				</g>
				<g>
					<g>
						<g>
							<g>
								<path style="fill:#263238;" d="M150.521,446.194c0.041,0.025,0.24-0.225,0.445-0.559c0.205-0.334,0.337-0.625,0.296-0.65
									c-0.041-0.025-0.24,0.225-0.445,0.559C150.613,445.878,150.48,446.169,150.521,446.194z"/>
							</g>
						</g>
					</g>
				</g>
				<g>
					<g>
						<g>
							<g>
								<path style="fill:#263238;" d="M149.347,445.597c0.033,0.035,0.258-0.12,0.502-0.346c0.244-0.226,0.416-0.439,0.383-0.474
									c-0.033-0.035-0.257,0.12-0.502,0.346C149.486,445.349,149.315,445.561,149.347,445.597z"/>
							</g>
						</g>
					</g>
				</g>
				<g>
					<g>
						<g>
							<g>
								<path style="fill:#263238;" d="M148.59,444.25c0,0.048,0.337,0.086,0.752,0.084s0.751-0.042,0.751-0.09
									c0-0.048-0.337-0.086-0.752-0.084C148.926,444.162,148.59,444.202,148.59,444.25z"/>
							</g>
						</g>
					</g>
				</g>
				<g>
					<g>
						<g>
							<g>
								<path style="fill:#263238;" d="M148.323,443.297c-0.016,0.043,0.353,0.203,0.841,0.231c0.488,0.031,0.873-0.084,0.863-0.129
									c-0.009-0.05-0.389-0.016-0.852-0.045C148.711,443.328,148.337,443.249,148.323,443.297z"/>
							</g>
						</g>
					</g>
				</g>
				<g>
					<g>
						<g>
							<g>
								<path style="fill:#263238;" d="M150.99,444.932c-0.001,0.02,0.355,0.057,0.924-0.02c0.284-0.039,0.62-0.111,0.981-0.232
									c0.179-0.067,0.367-0.118,0.56-0.241c0.09-0.063,0.191-0.15,0.224-0.291c0.036-0.139-0.04-0.294-0.146-0.367
									c-0.891-0.444-1.768,0.066-2.088,0.528c-0.177,0.236-0.256,0.464-0.292,0.621c-0.035,0.159-0.03,0.249-0.02,0.25
									c0.033,0.012,0.057-0.365,0.409-0.795c0.174-0.211,0.438-0.417,0.782-0.525c0.325-0.102,0.789-0.135,1.103,0.058
									c0.148,0.106,0.094,0.28-0.068,0.38c-0.151,0.1-0.346,0.163-0.516,0.23c-0.348,0.126-0.672,0.209-0.948,0.262
									C151.342,444.897,150.989,444.904,150.99,444.932z"/>
							</g>
						</g>
					</g>
				</g>
				<g>
					<g>
						<g>
							<g>
								<path style="fill:#263238;" d="M151.23,444.974c0.013,0.01,0.146-0.228,0.097-0.643c-0.026-0.204-0.104-0.444-0.263-0.671
									c-0.166-0.203-0.381-0.482-0.777-0.459c-0.214,0.031-0.315,0.276-0.278,0.431c0.019,0.162,0.094,0.3,0.163,0.411
									c0.141,0.229,0.299,0.413,0.445,0.552c0.294,0.279,0.525,0.383,0.535,0.366c0.016-0.023-0.187-0.163-0.446-0.452
									c-0.129-0.144-0.269-0.328-0.395-0.549c-0.13-0.193-0.222-0.543,0.009-0.589c0.231-0.026,0.471,0.201,0.615,0.383
									c0.148,0.198,0.232,0.412,0.271,0.597C151.282,444.727,151.199,444.968,151.23,444.974z"/>
							</g>
						</g>
					</g>
				</g>
				<g>
					<g>
						<g>
							<g>
								<path style="fill:#263238;" d="M135.648,444.245c0.004,0.032,0.411-0.046,1.063,0.021c0.645,0.062,1.545,0.312,2.333,0.92
									c0.788,0.609,1.257,1.417,1.48,2.025c0.229,0.613,0.257,1.027,0.289,1.023c0.011-0.001,0.014-0.104-0.004-0.29
									c-0.018-0.186-0.066-0.454-0.169-0.773c-0.198-0.635-0.669-1.487-1.49-2.122c-0.822-0.634-1.765-0.874-2.43-0.905
									c-0.335-0.018-0.606,0.003-0.791,0.032C135.745,444.205,135.646,444.234,135.648,444.245z"/>
							</g>
						</g>
					</g>
				</g>
				<g>
					<g>
						<g>
							<g>
								<path style="fill:#263238;" d="M137.047,438.236c-0.048,0-0.084,1.324-0.079,2.956c0.004,1.633,0.047,2.956,0.095,2.956
									c0.048,0,0.084-1.324,0.079-2.957C137.137,439.56,137.095,438.236,137.047,438.236z"/>
							</g>
						</g>
					</g>
				</g>
				<g>
					<g>
						<g>
							<g>
								<path style="fill:#263238;" d="M142.625,446.885c-0.005,0.045,0.934,0.185,2.103,0.176c1.169-0.005,2.107-0.156,2.101-0.201
									c-0.006-0.051-0.944,0.021-2.102,0.026C143.569,446.896,142.63,446.835,142.625,446.885z"/>
							</g>
						</g>
					</g>
				</g>
				<g>
					<g>
						<g>
							<g>
								<path style="fill:#263238;" d="M139.806,446.925c-0.035,0.036,0.08,0.198,0.179,0.412c0.102,0.213,0.155,0.404,0.204,0.4
									c0.047-0.001,0.071-0.228-0.046-0.475C140.027,447.015,139.836,446.889,139.806,446.925z"/>
							</g>
						</g>
					</g>
				</g>
				<g>
					<g>
						<g>
							<g>
								<path style="fill:#263238;" d="M138.723,445.619c-0.034,0.034,0.061,0.183,0.212,0.331c0.151,0.149,0.301,0.241,0.335,0.207
									c0.034-0.034-0.061-0.182-0.213-0.331C138.906,445.677,138.757,445.585,138.723,445.619z"/>
							</g>
						</g>
					</g>
				</g>
				<g>
					<g>
						<g>
							<g>
								<path style="fill:#263238;" d="M137.193,445.038c0.011,0.049,0.202,0.044,0.414,0.115c0.214,0.066,0.366,0.181,0.404,0.148
									c0.038-0.027-0.086-0.23-0.35-0.314C137.398,444.901,137.178,444.994,137.193,445.038z"/>
							</g>
						</g>
					</g>
				</g>
				<g>
					<g>
						<g>
							<g>
								<path style="fill:#263238;" d="M136.107,444.77c-0.017,0.045,0.067,0.118,0.187,0.162c0.12,0.045,0.231,0.044,0.248-0.001
									c0.017-0.045-0.067-0.118-0.187-0.162C136.234,444.724,136.124,444.725,136.107,444.77z"/>
							</g>
						</g>
					</g>
				</g>
			</g>
		</g>
		<g>
			<g>
				<g>
					<g>
						<g>
							<g>
								<path style="fill:#E8505B;" d="M99.289,442.269l4.877-5.932l-11.053-9.206l-7.227,8.603l0.649,0.615
									c2.909,2.71,14.982,13.573,17.536,14.653C106.919,452.206,99.289,442.269,99.289,442.269z"/>
							</g>
						</g>
					</g>
					<g style="opacity:0.5;">
						<g>
							<g>
								<path style="fill:#FFFFFF;" d="M89.965,438.985c0.612-1.055,0.813-2.34,0.553-3.532c-0.261-1.191-0.918-2.252-1.914-2.955
									l-2.575,3.087L89.965,438.985z"/>
							</g>
						</g>
					</g>
				</g>
				<g style="opacity:0.4;">
					<g>
						<g>
							<path style="fill:#FFFFFF;" d="M102.881,447.288c0,0,2.501,3.691,1.638,3.891c-0.862,0.2-13.476-10.319-18.634-15.445
								l0.223-0.232l14.609,12.395C100.717,447.896,102.215,446.779,102.881,447.288z"/>
						</g>
					</g>
				</g>
				<g>
					<g>
						<g>
							<g>
								<path style="fill:#263238;" d="M85.941,435.35c-0.004,0.005,0.056,0.066,0.173,0.179c0.156,0.146,0.326,0.307,0.518,0.488
									c0.526,0.479,1.173,1.067,1.936,1.761c1.645,1.475,3.945,3.483,6.533,5.645c2.589,2.162,4.975,4.067,6.72,5.423
									c0.819,0.627,1.513,1.159,2.078,1.591c0.212,0.157,0.4,0.296,0.572,0.423c0.132,0.095,0.203,0.143,0.207,0.138
									c0.004-0.005-0.06-0.062-0.185-0.166c-0.166-0.135-0.347-0.282-0.552-0.449c-0.555-0.444-1.237-0.99-2.043-1.634
									c-1.725-1.38-4.097-3.3-6.684-5.46c-2.586-2.16-4.897-4.153-6.563-5.604c-0.777-0.678-1.436-1.252-1.972-1.719
									c-0.2-0.172-0.378-0.324-0.54-0.463C86.012,435.398,85.945,435.345,85.941,435.35z"/>
							</g>
						</g>
					</g>
				</g>
				<g>
					<g>
						<g>
							<g>
								<path style="fill:#263238;" d="M100.571,448.065c0.036,0.039,0.468-0.414,1.174-0.646c0.703-0.244,1.32-0.145,1.326-0.198
									c0.02-0.04-0.627-0.227-1.381,0.033C100.933,447.505,100.531,448.046,100.571,448.065z"/>
							</g>
						</g>
					</g>
				</g>
				<g>
					<g>
						<g>
							<g>
								<path style="fill:#263238;" d="M98.691,443.693c0.015,0.046,0.329-0.014,0.702-0.133c0.373-0.12,0.663-0.254,0.649-0.299
									c-0.015-0.046-0.329,0.014-0.702,0.133C98.966,443.513,98.676,443.647,98.691,443.693z"/>
							</g>
						</g>
					</g>
				</g>
				<g>
					<g>
						<g>
							<g>
								<path style="fill:#263238;" d="M98.19,442.474c0.002,0.048,0.273,0.077,0.606,0.065c0.333-0.012,0.601-0.061,0.6-0.109
									c-0.002-0.048-0.273-0.077-0.606-0.065C98.457,442.377,98.189,442.426,98.19,442.474z"/>
							</g>
						</g>
					</g>
				</g>
				<g>
					<g>
						<g>
							<g>
								<path style="fill:#263238;" d="M98.495,440.96c-0.031,0.037,0.199,0.285,0.515,0.554c0.316,0.269,0.597,0.458,0.628,0.421
									c0.031-0.037-0.199-0.285-0.515-0.554C98.807,441.112,98.526,440.923,98.495,440.96z"/>
							</g>
						</g>
					</g>
				</g>
				<g>
					<g>
						<g>
							<g>
								<path style="fill:#263238;" d="M98.914,440.063c-0.04,0.023,0.135,0.384,0.487,0.723c0.35,0.342,0.717,0.506,0.738,0.465
									c0.026-0.043-0.285-0.266-0.617-0.59C99.188,440.339,98.956,440.036,98.914,440.063z"/>
							</g>
						</g>
					</g>
				</g>
				<g>
					<g>
						<g>
							<g>
								<path style="fill:#263238;" d="M99.869,443.042c-0.013,0.014,0.231,0.275,0.714,0.587c0.241,0.156,0.542,0.32,0.895,0.464
									c0.18,0.066,0.355,0.15,0.581,0.183c0.109,0.012,0.242,0.011,0.36-0.074c0.118-0.082,0.161-0.249,0.129-0.374
									c-0.385-0.917-1.383-1.102-1.927-0.962c-0.288,0.063-0.497,0.185-0.627,0.281c-0.13,0.098-0.185,0.169-0.178,0.176
									c0.017,0.03,0.281-0.239,0.828-0.336c0.269-0.046,0.604-0.031,0.935,0.112c0.313,0.135,0.686,0.412,0.798,0.763
									c0.043,0.177-0.111,0.273-0.299,0.244c-0.18-0.022-0.369-0.102-0.541-0.162c-0.346-0.132-0.646-0.28-0.89-0.419
									C100.158,443.245,99.887,443.02,99.869,443.042z"/>
							</g>
						</g>
					</g>
				</g>
				<g>
					<g>
						<g>
							<g>
								<path style="fill:#263238;" d="M100.024,443.23c0.004,0.016,0.259-0.078,0.493-0.425c0.113-0.171,0.211-0.405,0.239-0.68
									c0.006-0.262,0.026-0.614-0.289-0.855c-0.182-0.116-0.419,0.004-0.492,0.145c-0.091,0.135-0.124,0.289-0.144,0.418
									c-0.042,0.265-0.043,0.508-0.023,0.709c0.041,0.403,0.148,0.633,0.167,0.626c0.027-0.007-0.035-0.245-0.044-0.633
									c-0.004-0.193,0.01-0.424,0.058-0.674c0.028-0.231,0.186-0.556,0.391-0.44c0.192,0.131,0.226,0.459,0.216,0.691
									c-0.016,0.247-0.092,0.464-0.184,0.629C100.224,443.076,100.004,443.206,100.024,443.23z"/>
							</g>
						</g>
					</g>
				</g>
				<g>
					<g>
						<g>
							<g>
								<path style="fill:#263238;" d="M88.687,432.515c-0.018,0.027,0.341,0.234,0.792,0.709c0.449,0.467,0.967,1.244,1.169,2.219
									c0.2,0.976,0.029,1.894-0.199,2.501c-0.226,0.614-0.475,0.946-0.448,0.964c0.009,0.006,0.079-0.07,0.186-0.223
									c0.108-0.153,0.246-0.387,0.376-0.696c0.264-0.611,0.463-1.563,0.254-2.581c-0.21-1.017-0.768-1.813-1.252-2.27
									c-0.242-0.232-0.461-0.394-0.621-0.491C88.787,432.548,88.693,432.506,88.687,432.515z"/>
							</g>
						</g>
					</g>
				</g>
				<g>
					<g>
						<g>
							<g>
								<path style="fill:#263238;" d="M93.666,428.872c-0.037-0.031-0.927,0.949-1.988,2.189c-1.062,1.241-1.892,2.272-1.856,2.303
									c0.037,0.031,0.927-0.949,1.988-2.189C92.872,429.935,93.703,428.904,93.666,428.872z"/>
							</g>
						</g>
					</g>
				</g>
				<g>
					<g>
						<g>
							<g>
								<path style="fill:#263238;" d="M92.254,439.067c-0.034,0.031,0.588,0.749,1.479,1.505c0.89,0.759,1.699,1.256,1.724,1.218
									c0.029-0.042-0.729-0.599-1.611-1.351C92.963,439.69,92.29,439.032,92.254,439.067z"/>
							</g>
						</g>
					</g>
				</g>
				<g>
					<g>
						<g>
							<g>
								<path style="fill:#263238;" d="M90.091,437.258c-0.049,0.005-0.068,0.202-0.133,0.429c-0.061,0.228-0.146,0.407-0.106,0.437
									c0.036,0.029,0.202-0.127,0.274-0.39C90.2,437.471,90.137,437.251,90.091,437.258z"/>
							</g>
						</g>
					</g>
				</g>
				<g>
					<g>
						<g>
							<g>
								<path style="fill:#263238;" d="M90.122,435.562c-0.048,0.004-0.073,0.178-0.055,0.39c0.018,0.211,0.071,0.379,0.119,0.375
									c0.048-0.004,0.073-0.178,0.055-0.39C90.223,435.726,90.17,435.558,90.122,435.562z"/>
							</g>
						</g>
					</g>
				</g>
				<g>
					<g>
						<g>
							<g>
								<path style="fill:#263238;" d="M89.341,434.124c-0.024,0.044,0.124,0.165,0.239,0.358c0.119,0.19,0.16,0.376,0.209,0.375
									c0.047,0.004,0.085-0.23-0.061-0.466C89.585,434.154,89.359,434.081,89.341,434.124z"/>
							</g>
						</g>
					</g>
				</g>
				<g>
					<g>
						<g>
							<g>
								<path style="fill:#263238;" d="M88.693,433.212c-0.042,0.023-0.026,0.133,0.036,0.245c0.062,0.112,0.146,0.184,0.189,0.161
									c0.042-0.023,0.026-0.133-0.036-0.245C88.819,433.261,88.735,433.189,88.693,433.212z"/>
							</g>
						</g>
					</g>
				</g>
			</g>
		</g>
		<g>
			<g>
				<path style="fill:#263238;" d="M129.222,281.587c0,0-4.788,20.263-3.434,24.272c1.354,4.009,10.129,6.326,10.129,6.326
					l-0.296,55.486l-48.525,59.98l17.919,14.66c0,0,52.53-60.092,57.161-70.974c4.63-10.881-2.951-90.648-2.951-90.648
					L129.222,281.587z"/>
			</g>
			<g>
				<path style="fill:#263238;" d="M154.006,273.325l2.374,168.526l-24.686,0.125l-12.388-137.255l0,0
					c-2.619-2.499-6.302-6.781-5.795-16.327l0.601-11.092L154.006,273.325z"/>
			</g>
			<g>
				<g>
					<path style="fill:#455A64;" d="M127.978,377.053c-0.009-0.007,0.04-0.091,0.143-0.25c0.127-0.188,0.281-0.415,0.469-0.691
						c0.454-0.642,1.067-1.51,1.835-2.596c1.641-2.271,3.935-5.447,6.697-9.271l-0.042,0.127
						c-0.537-5.849-1.189-12.943-1.892-20.591c-0.896-10.024-1.622-19.105-2.049-25.686c-0.218-3.29-0.361-5.955-0.44-7.797
						c-0.03-0.881-0.054-1.586-0.073-2.122c-0.011-0.485-0.008-0.741,0.01-0.742c0.018-0.001,0.05,0.253,0.095,0.736
						c0.043,0.534,0.1,1.238,0.17,2.116c0.147,1.895,0.353,4.539,0.605,7.783c0.521,6.571,1.305,15.645,2.2,25.667
						c0.673,7.675,1.359,14.757,1.802,20.636l0.005,0.065l-0.047,0.062c-2.823,3.779-5.168,6.918-6.845,9.163
						c-0.807,1.057-1.452,1.902-1.929,2.527c-0.208,0.261-0.378,0.476-0.52,0.654C128.053,376.988,127.987,377.06,127.978,377.053z"
						/>
				</g>
			</g>
			<g>
				<g>
					<path style="fill:#455A64;" d="M135.555,307.433c-0.022,0.139-2.964-0.22-6.536-0.973c-3.575-0.748-6.411-1.603-6.376-1.739
						c0.037-0.143,2.922,0.484,6.483,1.229C132.686,306.701,135.579,307.288,135.555,307.433z"/>
				</g>
			</g>
			<g>
				<g>
					<path style="fill:#455A64;" d="M152.463,364.971c-0.066,0.159-2.835-1.46-6.666-1.737c-3.828-0.331-6.818,0.833-6.857,0.665
						c-0.022-0.055,0.685-0.42,1.924-0.754c1.234-0.335,3.015-0.583,4.975-0.43c1.959,0.159,3.678,0.683,4.844,1.209
						C151.852,364.448,152.493,364.92,152.463,364.971z"/>
				</g>
			</g>
			<g>
				<g>
					<path style="fill:#455A64;" d="M161.17,372.78c0.115,0.087-6.829,9.407-15.507,20.814
						c-8.681,11.411-15.809,20.588-15.923,20.501c-0.114-0.087,6.828-9.405,15.509-20.816
						C153.926,381.872,161.055,372.694,161.17,372.78z"/>
				</g>
			</g>
			<g>
				<g>
					<path style="fill:#455A64;" d="M157.826,285.845c0.045,0.015-0.294,0.877-1.39,1.833c-1.06,0.945-3.01,1.904-5.263,1.676
						c-2.252-0.247-3.958-1.592-4.798-2.737c-0.872-1.164-1.024-2.077-0.976-2.083c0.088-0.038,0.363,0.809,1.262,1.851
						c0.87,1.032,2.496,2.225,4.567,2.451c2.071,0.211,3.911-0.617,4.977-1.444C157.302,286.56,157.748,285.789,157.826,285.845z"/>
				</g>
			</g>
		</g>
		<g>
			<path style="fill:#263238;" d="M124.097,199.134c-4.019-3.817-6.472-9.236-6.688-14.774c-0.215-5.538,1.809-11.132,5.52-15.249"
				/>
		</g>
		<g>
			<g>
				<g>
					<path style="fill:#E8505B;" d="M110.233,214.855c0,0-5.363,6.058-6.474,29.23c0,0,15.273,2.897,15.552,2.064
						C119.59,245.316,110.233,214.855,110.233,214.855z"/>
				</g>
				<g style="opacity:0.3;">
					<path d="M110.233,214.855c0,0-5.363,6.058-6.474,29.23c0,0,15.273,2.897,15.552,2.064
						C119.59,245.316,110.233,214.855,110.233,214.855z"/>
				</g>
				<g>
					<g>
						<g>
							<g>
								<path style="fill:#455A64;" d="M114.551,244.085"/>
							</g>
							<g>
								<path style="fill:#E8505B;" d="M112.707,282.339h46.888l-0.757-7.324c0,0-5.358-27.866-5.319-28.233l0.844-1.775
									c2.213-4.65,2.288-10.035,0.206-14.745l0,0l22.959-7.851l-5.621-18.944c-10.418,1.759-26.166,3.721-26.166,3.721
									l-2.344,0.197c0,0-16.256,0.848-16.603,0.889c-6.801,0.822-14.713,1.344-17.605,8.622
									c-1.546,3.891-0.077,9.733,2.447,15.756l6.011,18.497c2.4,10.167-1.43,9.684-3.533,19.917
									C113.796,272.612,112.676,280.919,112.707,282.339z"/>
							</g>
							<g style="opacity:0.3;">
								<path d="M112.707,282.339h46.888l-0.757-7.324c0,0-5.358-27.866-5.319-28.233l0.844-1.775
									c2.213-4.65,2.288-10.035,0.206-14.745l0,0l22.959-7.851l-5.621-18.944c-10.418,1.759-26.166,3.721-26.166,3.721
									l-2.344,0.197c0,0-16.256,0.848-16.603,0.889c-6.801,0.822-14.713,1.344-17.605,8.622
									c-1.546,3.891-0.077,9.733,2.447,15.756l6.011,18.497c2.4,10.167-1.43,9.684-3.533,19.917
									C113.796,272.612,112.676,280.919,112.707,282.339z"/>
							</g>
						</g>
					</g>
				</g>
				<g>
					<g>
						<path style="fill:#263238;" d="M177.313,222.717c0.011,0.034-0.352,0.185-1.019,0.428c-0.666,0.243-1.635,0.579-2.837,0.983
							c-2.4,0.811-5.734,1.886-9.414,3.062c-3.68,1.177-6.971,2.347-9.307,3.312c-1.172,0.473-2.104,0.895-2.755,1.173
							c-0.645,0.29-1.01,0.437-1.027,0.405c-0.016-0.032,0.317-0.239,0.938-0.586c0.626-0.335,1.539-0.81,2.699-1.329
							c2.312-1.057,5.605-2.29,9.293-3.469c3.685-1.178,7.033-2.196,9.463-2.918c1.215-0.359,2.201-0.642,2.886-0.826
							C176.918,222.768,177.302,222.683,177.313,222.717z"/>
					</g>
				</g>
			</g>
			<g>
				<g>
					<path style="fill:#FAFAFA;" d="M174.588,212.631c0,0.144-13.863,0.26-30.96,0.26c-17.103,0-30.963-0.117-30.963-0.26
						s13.86-0.26,30.963-0.26C160.725,212.37,174.588,212.487,174.588,212.631z"/>
				</g>
			</g>
			<g>
				<g>
					<path style="fill:#FAFAFA;" d="M176.017,221.84c0,0.144-15.427,0.26-34.453,0.26c-19.032,0-34.456-0.117-34.456-0.26
						s15.424-0.26,34.456-0.26C160.59,221.579,176.017,221.696,176.017,221.84z"/>
				</g>
			</g>
			<g>
				<g>
					<path style="fill:#FAFAFA;" d="M110.945,232.319c0,0.144-1.286,0.26-2.871,0.26c-1.586,0-2.871-0.117-2.871-0.26
						c0-0.144,1.285-0.26,2.871-0.26C109.66,232.059,110.945,232.175,110.945,232.319z"/>
				</g>
			</g>
			<g>
				<g>
					<path style="fill:#FAFAFA;" d="M156.011,232.637c0,0.144-10.089,0.26-22.532,0.26c-12.447,0-22.534-0.117-22.534-0.26
						s10.087-0.26,22.534-0.26C145.922,232.376,156.011,232.493,156.011,232.637z"/>
				</g>
			</g>
			<g>
				<g>
					<path style="fill:#FAFAFA;" d="M155.018,243.433c0,0.144-9.055,0.26-20.223,0.26c-11.171,0-20.224-0.117-20.224-0.26
						c0-0.144,9.053-0.26,20.224-0.26C145.963,243.173,155.018,243.29,155.018,243.433z"/>
				</g>
			</g>
			<g>
				<g>
					<path style="fill:#FAFAFA;" d="M154.725,253.436c0,0.144-8.208,0.26-18.329,0.26c-10.126,0-18.331-0.117-18.331-0.26
						s8.206-0.26,18.331-0.26C146.517,253.176,154.725,253.292,154.725,253.436z"/>
				</g>
			</g>
			<g>
				<g>
					<path style="fill:#FAFAFA;" d="M156.329,261.534c0,0.144-8.78,0.26-19.608,0.26c-10.832,0-19.61-0.117-19.61-0.26
						c0-0.144,8.778-0.26,19.61-0.26C147.549,261.273,156.329,261.39,156.329,261.534z"/>
				</g>
			</g>
			<g>
				<g>
					<path style="fill:#FAFAFA;" d="M158.869,271.854c0,0.144-9.988,0.26-22.307,0.26c-12.323,0-22.309-0.117-22.309-0.26
						c0-0.144,9.986-0.26,22.309-0.26C148.881,271.594,158.869,271.71,158.869,271.854z"/>
				</g>
			</g>
			<g>
				<g>
					<path style="fill:#263238;" d="M117.365,250.283c-0.034,0.011-0.18-0.318-0.415-0.922c-0.275-0.714-0.603-1.566-0.985-2.559
						c-0.825-2.163-1.987-5.144-3.195-8.468c-1.214-3.323-2.21-6.372-2.84-8.606c-0.314-1.117-0.549-2.027-0.684-2.662
						c-0.138-0.635-0.198-0.989-0.163-0.998c0.077-0.019,0.48,1.355,1.199,3.553c0.718,2.199,1.765,5.217,2.977,8.536
						c1.206,3.319,2.314,6.322,3.052,8.521c0.371,1.098,0.653,1.994,0.831,2.618C117.318,249.922,117.399,250.272,117.365,250.283z"
						/>
				</g>
			</g>
		</g>
	</g>
</g>
</svg>
