<svg role="img" viewBox="0 0 24 24" xmlns="http://www.w3.org/2000/svg">
  <title>GitHub</title>
  <path fill="white" d="M12 0C5.373 0 0 5.373 0 12c0 5.303 3.438 9.8 8.207 11.385.6.11.793-.26.793-.577 0-.285-.01-1.04-.015-2.04-3.34.725-4.042-1.61-4.042-1.61-.546-1.387-1.333-1.756-1.333-1.756-1.09-.745.082-.73.082-.73 1.205.085 1.84 1.237 1.84 1.237 1.07 1.832 2.81 1.303 3.495.997.108-.775.42-1.303.764-1.603-2.665-.305-5.467-1.332-5.467-5.93 0-1.31.468-2.38 1.236-3.22-.124-.303-.536-1.525.116-3.176 0 0 1.008-.322 3.3 1.23a11.5 11.5 0 0 1 3-.403c1.02.005 2.04.137 3 .403 2.29-1.552 3.3-1.23 3.3-1.23.653 1.65.24 2.873.118 3.176.77.84 1.235 1.91 1.235 3.22 0 4.61-2.807 5.625-5.48 5.92.43.372.823 1.102.823 2.222 0 1.603-.015 2.893-.015 3.286 0 .32.19.692.8.576C20.565 21.795 24 17.298 24 12c0-6.627-5.373-12-12-12z"/>
</svg>
